<svg id="visual" viewBox="0 0 540 960" width="540" height="960" xmlns="http://www.w3.org/2000/svg" xmlns:xlink="http://www.w3.org/1999/xlink" version="1.1"><rect x="0" y="0" width="540" height="960" fill="#000"></rect><defs><linearGradient id="grad1_0" x1="0%" y1="100%" x2="100%" y2="0%"><stop offset="30%" stop-color="#000000" stop-opacity="1"></stop><stop offset="70%" stop-color="#000000" stop-opacity="1"></stop></linearGradient></defs><defs><linearGradient id="grad2_0" x1="0%" y1="100%" x2="100%" y2="0%"><stop offset="30%" stop-color="#000000" stop-opacity="1"></stop><stop offset="70%" stop-color="#000000" stop-opacity="1"></stop></linearGradient></defs><g transform="translate(540, 960)"><path d="M-243 0C-221.7 -19.4 -200.4 -38.7 -195.9 -63.7C-191.5 -88.6 -203.8 -119.2 -196.6 -142.8C-189.4 -166.5 -162.5 -183.3 -136.4 -187.7C-110.2 -192.1 -84.7 -184 -62.1 -191.2C-39.5 -198.3 -19.7 -220.7 0 -243L0 0Z" fill="#81b93a"></path></g><g transform="translate(0, 0)"><path d="M243 0C227.4 20.4 211.8 40.8 208.3 67.7C204.8 94.6 213.4 128.1 196.6 142.8C179.8 157.6 137.6 153.7 109.9 151.3C82.2 148.9 69.1 148 53.2 163.6C37.2 179.1 18.6 211.1 0 243L0 0Z" fill="#81b93a"></path></g></svg>